<svg width="192" height="36" viewBox="0 0 192 36" fill="none" xmlns="http://www.w3.org/2000/svg">
<path d="M0.731934 35V2.27273H14.8584C17.2873 2.27273 19.4127 2.75213 21.2344 3.71094C23.0562 4.66974 24.4731 6.0174 25.4851 7.75391C26.4972 9.49041 27.0032 11.5199 27.0032 13.8423C27.0032 16.1861 26.4812 18.2156 25.4372 19.9308C24.4038 21.646 22.9496 22.967 21.0746 23.8938C19.2103 24.8207 17.0316 25.2841 14.5388 25.2841H6.10125V18.3807H12.749C13.793 18.3807 14.6826 18.1996 15.4177 17.8374C16.1634 17.4645 16.7334 16.9371 17.1275 16.2553C17.5324 15.5735 17.7348 14.7692 17.7348 13.8423C17.7348 12.9048 17.5324 12.1058 17.1275 11.4453C16.7334 10.7741 16.1634 10.2628 15.4177 9.91122C14.6826 9.549 13.793 9.3679 12.749 9.3679H9.61688V35H0.731934ZM41.689 35.4474C39.0256 35.4474 36.7458 34.9201 34.8495 33.8654C32.9532 32.8001 31.499 31.3192 30.4869 29.4229C29.4748 27.516 28.9688 25.3054 28.9688 22.7912C28.9688 20.277 29.4748 18.0717 30.4869 16.1754C31.499 14.2685 32.9532 12.7876 34.8495 11.733C36.7458 10.6676 39.0256 10.1349 41.689 10.1349C44.3523 10.1349 46.6321 10.6676 48.5285 11.733C50.4248 12.7876 51.879 14.2685 52.891 16.1754C53.9031 18.0717 54.4091 20.277 54.4091 22.7912C54.4091 25.3054 53.9031 27.516 52.891 29.4229C51.879 31.3192 50.4248 32.8001 48.5285 33.8654C46.6321 34.9201 44.3523 35.4474 41.689 35.4474ZM41.7529 28.9276C42.4986 28.9276 43.1432 28.6772 43.6865 28.1765C44.2298 27.6758 44.6506 26.962 44.9489 26.0352C45.2472 25.1083 45.3964 24.0057 45.3964 22.7273C45.3964 21.4382 45.2472 20.3356 44.9489 19.4194C44.6506 18.4925 44.2298 17.7788 43.6865 17.2781C43.1432 16.7773 42.4986 16.527 41.7529 16.527C40.9645 16.527 40.288 16.7773 39.7234 17.2781C39.1588 17.7788 38.7273 18.4925 38.429 19.4194C38.1307 20.3356 37.9816 21.4382 37.9816 22.7273C37.9816 24.0057 38.1307 25.1083 38.429 26.0352C38.7273 26.962 39.1588 27.6758 39.7234 28.1765C40.288 28.6772 40.9645 28.9276 41.7529 28.9276ZM65.9148 29.1832L65.9787 18.7003H67.1293L73.0739 10.4545H82.9816L73.01 23.3026H70.5171L65.9148 29.1832ZM57.9887 35V2.27273H66.8097V35H57.9887ZM73.1378 35L67.5128 25.2841L73.2657 19.0199L83.2373 35H73.1378ZM96.0293 35.4474C93.4086 35.4474 91.1501 34.9467 89.2538 33.9453C87.3681 32.9332 85.9139 31.4844 84.8912 29.5987C83.8791 27.7024 83.3731 25.4332 83.3731 22.7912C83.3731 20.2557 83.8845 18.0398 84.9072 16.1435C85.9299 14.2472 87.3734 12.7717 89.2378 11.717C91.1021 10.6623 93.3021 10.1349 95.8376 10.1349C97.6913 10.1349 99.3692 10.4226 100.871 10.9979C102.373 11.5732 103.657 12.4094 104.723 13.5067C105.788 14.5934 106.608 15.9144 107.183 17.4698C107.759 19.0252 108.046 20.7777 108.046 22.7273V24.7727H86.1217V19.9148H99.9285C99.9178 19.2116 99.7367 18.5937 99.3852 18.0611C99.0443 17.5178 98.5808 17.0969 97.9949 16.7987C97.4196 16.4897 96.7644 16.3352 96.0293 16.3352C95.3156 16.3352 94.6604 16.4897 94.0638 16.7987C93.4672 17.0969 92.9878 17.5124 92.6256 18.0451C92.274 18.5778 92.0876 19.201 92.0663 19.9148V25.1562C92.0663 25.9446 92.2314 26.6477 92.5617 27.2656C92.8919 27.8835 93.366 28.3683 93.9839 28.7198C94.6018 29.0714 95.3475 29.2472 96.2211 29.2472C96.8283 29.2472 97.3823 29.1619 97.883 28.9915C98.3944 28.821 98.8312 28.576 99.1934 28.2564C99.5556 27.9261 99.822 27.532 99.9924 27.0739H108.046C107.769 28.7784 107.114 30.2592 106.081 31.5163C105.047 32.7628 103.678 33.7322 101.974 34.4247C100.28 35.1065 98.2985 35.4474 96.0293 35.4474ZM92.8333 7.38636L88.0393 0.227271H95.5819L98.6501 7.38636H92.8333ZM120.531 35.3196C118.784 35.3196 117.175 34.8615 115.705 33.9453C114.245 33.0291 113.073 31.6388 112.189 29.7745C111.316 27.9102 110.879 25.5611 110.879 22.7273C110.879 19.7656 111.337 17.358 112.253 15.5043C113.18 13.6506 114.373 12.2923 115.833 11.4293C117.303 10.5664 118.848 10.1349 120.467 10.1349C121.681 10.1349 122.747 10.348 123.663 10.7741C124.579 11.1896 125.346 11.7489 125.964 12.4521C126.582 13.1445 127.051 13.9062 127.37 14.7372H127.498V2.27273H136.319V35H127.562V30.973H127.37C127.029 31.804 126.539 32.5497 125.9 33.2102C125.272 33.8601 124.505 34.3768 123.599 34.7603C122.704 35.1332 121.681 35.3196 120.531 35.3196ZM123.791 28.544C124.6 28.544 125.293 28.3097 125.868 27.8409C126.454 27.3615 126.902 26.6903 127.211 25.8274C127.53 24.9538 127.69 23.9205 127.69 22.7273C127.69 21.5128 127.53 20.4741 127.211 19.6112C126.902 18.7376 126.454 18.0717 125.868 17.6136C125.293 17.1449 124.6 16.9105 123.791 16.9105C122.981 16.9105 122.289 17.1449 121.713 17.6136C121.149 18.0717 120.712 18.7376 120.403 19.6112C120.105 20.4741 119.956 21.5128 119.956 22.7273C119.956 23.9418 120.105 24.9858 120.403 25.8594C120.712 26.7223 121.149 27.3881 121.713 27.8569C122.289 28.315 122.981 28.544 123.791 28.544ZM152.411 35.4474C149.79 35.4474 147.532 34.9467 145.636 33.9453C143.75 32.9332 142.296 31.4844 141.273 29.5987C140.261 27.7024 139.755 25.4332 139.755 22.7912C139.755 20.2557 140.266 18.0398 141.289 16.1435C142.312 14.2472 143.755 12.7717 145.62 11.717C147.484 10.6623 149.684 10.1349 152.219 10.1349C154.073 10.1349 155.751 10.4226 157.253 10.9979C158.755 11.5732 160.039 12.4094 161.104 13.5067C162.17 14.5934 162.99 15.9144 163.565 17.4698C164.141 19.0252 164.428 20.7777 164.428 22.7273V24.7727H142.504V19.9148H156.31C156.3 19.2116 156.119 18.5937 155.767 18.0611C155.426 17.5178 154.963 17.0969 154.377 16.7987C153.801 16.4897 153.146 16.3352 152.411 16.3352C151.697 16.3352 151.042 16.4897 150.446 16.7987C149.849 17.0969 149.37 17.5124 149.007 18.0451C148.656 18.5778 148.469 19.201 148.448 19.9148V25.1562C148.448 25.9446 148.613 26.6477 148.943 27.2656C149.274 27.8835 149.748 28.3683 150.366 28.7198C150.984 29.0714 151.729 29.2472 152.603 29.2472C153.21 29.2472 153.764 29.1619 154.265 28.9915C154.776 28.821 155.213 28.576 155.575 28.2564C155.937 27.9261 156.204 27.532 156.374 27.0739H164.428C164.151 28.7784 163.496 30.2592 162.463 31.5163C161.429 32.7628 160.06 33.7322 158.356 34.4247C156.662 35.1065 154.68 35.4474 152.411 35.4474ZM175.371 10.4545L178.95 18.0611L182.721 10.4545H191.479L184.895 22.7273L191.798 35H183.105L178.95 27.2017L174.923 35H166.102L173.069 22.7273L166.55 10.4545H175.371Z" fill="url(#paint0_linear_43_180)"/>
<defs>
<linearGradient id="paint0_linear_43_180" x1="-1.5" y1="23.5" x2="189" y2="25.5" gradientUnits="userSpaceOnUse">
<stop offset="0.228553" stop-color="#47338D"/>
<stop offset="0.48068" stop-color="#FF00F5" stop-opacity="0.495664"/>
<stop offset="0.847716" stop-color="#47338D"/>
</linearGradient>
</defs>
</svg>
